HIERARCHY
ROOT pelvis
{
	OFFSET 0.003123 -0.351407 0.012037
	CHANNELS 6 Xposition Yposition Zposition Zrotation Yrotation Xrotation 
	JOINT left_hip
	{
		OFFSET 0.058189 -0.092763 -0.026001
		CHANNELS 3 Zrotation Yrotation Xrotation
		JOINT left_knee
		{
			OFFSET 0.054695 -0.378753 -0.009396
			CHANNELS 3 Zrotation Yrotation Xrotation
			JOINT left_ankle
			{
				OFFSET -0.043453 -0.403059 -0.031876
				CHANNELS 3 Zrotation Yrotation Xrotation
				JOINT left_foot
				{
					OFFSET 0.047257 -0.057997 0.118216
					CHANNELS 3 Zrotation Yrotation Xrotation
					End Site
					{
						OFFSET 0.000000 0.000000 0.000000
					}
				}
			}
		}
	}
	JOINT right_hip
	{
		OFFSET -0.063267 -0.103908 -0.021250
		CHANNELS 3 Zrotation Yrotation Xrotation
		JOINT right_knee
		{
			OFFSET -0.044210 -0.362380 -0.016824
			CHANNELS 3 Zrotation Yrotation Xrotation
			JOINT right_ankle
			{
				OFFSET 0.015417 -0.410728 -0.020192
				CHANNELS 3 Zrotation Yrotation Xrotation
				JOINT right_foot
				{
					OFFSET -0.038812 -0.058328 0.119049
					CHANNELS 3 Zrotation Yrotation Xrotation
					End Site
					{
						OFFSET 0.000000 0.000000 0.000000
					}
				}
			}
		}
	}
	JOINT spine_1
	{
		OFFSET -0.002763 0.109891 -0.027618
		CHANNELS 3 Zrotation Yrotation Xrotation
		JOINT spine_2
		{
			OFFSET 0.009448 0.131853 -0.005940
			CHANNELS 3 Zrotation Yrotation Xrotation
			JOINT spine_3
			{
				OFFSET -0.011330 0.052235 0.028447
				CHANNELS 3 Zrotation Yrotation Xrotation
				JOINT neck
				{
					OFFSET -0.012164 0.165167 -0.031615
					CHANNELS 3 Zrotation Yrotation Xrotation
					JOINT head
					{
						OFFSET 0.024783 0.160452 0.020737
						CHANNELS 3 Zrotation Yrotation Xrotation
						End Site
						{
							OFFSET 0.000000 0.000000 0.000000
						}
					}
				}
				JOINT left_collar
				{
					OFFSET 0.046364 0.084944 -0.007220
					CHANNELS 3 Zrotation Yrotation Xrotation
					JOINT left_shoulder
					{
						OFFSET 0.119239 0.057728 -0.015461
						CHANNELS 3 Zrotation Yrotation Xrotation
						JOINT left_elbow
						{
							OFFSET 0.254123 -0.072151 -0.042459
							CHANNELS 3 Zrotation Yrotation Xrotation
							JOINT left_wrist
							{
								OFFSET 0.251987 0.023221 -0.002472
								CHANNELS 3 Zrotation Yrotation Xrotation
								JOINT left_index_1
								{
									OFFSET 0.101902 -0.008688 0.019351
									CHANNELS 3 Zrotation Yrotation Xrotation
									JOINT left_index_2
									{
										OFFSET 0.030149 -0.011154 0.001151
										CHANNELS 3 Zrotation Yrotation Xrotation
										JOINT left_index_3
										{
											OFFSET 0.006504 -0.021577 -0.002433
											CHANNELS 3 Zrotation Yrotation Xrotation
											End Site
											{
												OFFSET 0.000000 0.000000 0.000000
											}
										}
									}
								}
								JOINT left_middle_1
								{
									OFFSET 0.109398 -0.006328 -0.003981
									CHANNELS 3 Zrotation Yrotation Xrotation
									JOINT left_middle_2
									{
										OFFSET 0.026472 -0.015218 -0.004641
										CHANNELS 3 Zrotation Yrotation Xrotation
										JOINT left_middle_3
										{
											OFFSET 0.005022 -0.023347 -0.001911
											CHANNELS 3 Zrotation Yrotation Xrotation
											End Site
											{
												OFFSET 0.000000 0.000000 0.000000
											}
										}
									}
								}
								JOINT left_pinky_1
								{
									OFFSET 0.084047 -0.014539 -0.043750
									CHANNELS 3 Zrotation Yrotation Xrotation
									JOINT left_pinky_2
									{
										OFFSET 0.012124 -0.014448 -0.005375
										CHANNELS 3 Zrotation Yrotation Xrotation
										JOINT left_pinky_3
										{
											OFFSET 0.003798 -0.018853 0.000167
											CHANNELS 3 Zrotation Yrotation Xrotation
											End Site
											{
												OFFSET 0.000000 0.000000 0.000000
											}
										}
									}
								}
								JOINT left_ring_1
								{
									OFFSET 0.097444 -0.009268 -0.027345
									CHANNELS 3 Zrotation Yrotation Xrotation
									JOINT left_ring_2
									{
										OFFSET 0.023561 -0.016057 -0.001895
										CHANNELS 3 Zrotation Yrotation Xrotation
										JOINT left_ring_3
										{
											OFFSET 0.004257 -0.023548 0.000814
											CHANNELS 3 Zrotation Yrotation Xrotation
											End Site
											{
												OFFSET 0.000000 0.000000 0.000000
											}
										}
									}
								}
								JOINT left_thumb_1
								{
									OFFSET 0.040636 -0.017977 0.025611
									CHANNELS 3 Zrotation Yrotation Xrotation
									JOINT left_thumb_2
									{
										OFFSET 0.021637 -0.017639 0.011623
										CHANNELS 3 Zrotation Yrotation Xrotation
										JOINT left_thumb_3
										{
											OFFSET 0.024002 -0.008356 0.006548
											CHANNELS 3 Zrotation Yrotation Xrotation
											End Site
											{
												OFFSET 0.000000 0.000000 0.000000
											}
										}
									}
								}
							}
						}
					}
				}
				JOINT right_collar
				{
					OFFSET -0.047695 0.084339 -0.013400
					CHANNELS 3 Zrotation Yrotation Xrotation
					JOINT right_shoulder
					{
						OFFSET -0.102578 0.053524 -0.012669
						CHANNELS 3 Zrotation Yrotation Xrotation
						JOINT right_elbow
						{
							OFFSET -0.271150 -0.036492 -0.026467
							CHANNELS 3 Zrotation Yrotation Xrotation
							JOINT right_wrist
							{
								OFFSET -0.249267 -0.004533 -0.015325
								CHANNELS 3 Zrotation Yrotation Xrotation
								JOINT right_index_1
								{
									OFFSET -0.099881 -0.011783 0.019600
									CHANNELS 3 Zrotation Yrotation Xrotation
									JOINT right_index_2
									{
										OFFSET -0.030148 -0.011154 0.001151
										CHANNELS 3 Zrotation Yrotation Xrotation
										JOINT right_index_3
										{
											OFFSET -0.006505 -0.021577 -0.002432
											CHANNELS 3 Zrotation Yrotation Xrotation
											End Site
											{
												OFFSET 0.000000 0.000000 0.000000
											}
										}
									}
								}
								JOINT right_middle_1
								{
									OFFSET -0.107376 -0.009422 -0.003734
									CHANNELS 3 Zrotation Yrotation Xrotation
									JOINT right_middle_2
									{
										OFFSET -0.026472 -0.015218 -0.004641
										CHANNELS 3 Zrotation Yrotation Xrotation
										JOINT right_middle_3
										{
											OFFSET -0.005022 -0.023347 -0.001911
											CHANNELS 3 Zrotation Yrotation Xrotation
											End Site
											{
												OFFSET 0.000000 0.000000 0.000000
											}
										}
									}
								}
								JOINT right_pinky_1
								{
									OFFSET -0.082027 -0.017634 -0.043503
									CHANNELS 3 Zrotation Yrotation Xrotation
									JOINT right_pinky_2
									{
										OFFSET -0.012123 -0.014448 -0.005374
										CHANNELS 3 Zrotation Yrotation Xrotation
										JOINT right_pinky_3
										{
											OFFSET -0.003798 -0.018852 0.000167
											CHANNELS 3 Zrotation Yrotation Xrotation
											End Site
											{
												OFFSET 0.000000 0.000000 0.000000
											}
										}
									}
								}
								JOINT right_ring_1
								{
									OFFSET -0.095423 -0.012362 -0.027099
									CHANNELS 3 Zrotation Yrotation Xrotation
									JOINT right_ring_2
									{
										OFFSET -0.023561 -0.016057 -0.001895
										CHANNELS 3 Zrotation Yrotation Xrotation
										JOINT right_ring_3
										{
											OFFSET -0.004257 -0.023548 0.000816
											CHANNELS 3 Zrotation Yrotation Xrotation
											End Site
											{
												OFFSET 0.000000 0.000000 0.000000
											}
										}
									}
								}
								JOINT right_thumb_1
								{
									OFFSET -0.038613 -0.021074 0.025861
									CHANNELS 3 Zrotation Yrotation Xrotation
									JOINT right_thumb_2
									{
										OFFSET -0.021636 -0.017639 0.011623
										CHANNELS 3 Zrotation Yrotation Xrotation
										JOINT right_thumb_3
										{
											OFFSET -0.024004 -0.008353 0.006547
											CHANNELS 3 Zrotation Yrotation Xrotation
											End Site
											{
												OFFSET 0.000000 0.000000 0.000000
											}
										}
									}
								}
							}
						}
					}
				}
			}
		}
	}
}
MOTION
Frames: 4
Frame Time: 0.050000
0.001558 0.933365 0.036224 -1.718100 8.751069 -16.470636 3.778690 1.417095 16.075080 -4.226357 -2.372459 26.668732 2.323690 -7.296237 -11.744985 0.000000 0.000000 0.000000 -0.142909 -1.314906 9.947342 1.051908 0.117290 9.415947 -0.107178 7.890265 -11.721575 0.000000 0.000000 0.000000 -1.620415 -0.506635 8.495108 -4.710123 0.588666 -9.159792 9.880092 -0.900547 24.053604 3.263525 -0.784530 1.210423 0.000000 0.000000 0.000000 -7.421453 -11.460228 5.254923 -50.937150 -22.807400 -6.183426 -14.922684 -24.196228 5.490222 -2.370523 -0.883181 -2.554853 -15.906424 2.550826 1.213093 -24.984233 5.930037 5.945807 0.000000 0.000000 0.000000 -17.965374 -0.279950 -2.888254 -37.819608 -3.054997 -9.657457 0.000000 0.000000 0.000000 -0.331572 -8.880338 -11.714347 -55.244087 -12.242652 -13.966007 0.000000 0.000000 0.000000 -17.886576 -4.255498 -3.225989 -43.530753 -13.578049 -16.932182 0.000000 0.000000 0.000000 13.879651 18.855448 11.909281 -7.323574 -7.932540 -0.433294 0.000000 0.000000 0.000000 7.076259 4.570234 2.359321 44.465366 14.859033 -1.028008 10.075575 20.063325 0.906455 5.439084 -0.022856 -8.383144 14.829790 -5.872257 1.937172 16.185942 -1.612973 2.308280 0.000000 0.000000 0.000000 20.772838 2.753719 -3.775245 25.742560 3.345088 -8.229208 0.000000 0.000000 0.000000 0.194116 13.703962 -19.525265 18.889185 4.529457 -9.777213 0.000000 0.000000 0.000000 20.310517 7.048075 -4.115703 23.908050 9.963913 -15.640194 0.000000 0.000000 0.000000 -18.485651 -24.899659 16.076381 11.224700 9.893555 -0.115172 0.000000 0.000000 0.000000 
0.009184 0.940134 0.041504 -1.490947 11.462929 -18.982966 2.886473 1.287559 13.833365 -3.669477 -4.166395 35.471452 -0.225551 -9.149761 -7.973364 0.000000 0.000000 0.000000 0.694213 -1.436251 10.088015 -1.605129 0.654904 15.268157 -0.842783 5.023777 -11.411800 0.000000 0.000000 0.000000 -3.301006 -0.697942 12.487227 -4.404698 0.662070 -8.759258 11.054142 -0.133979 24.534220 5.494521 -1.085121 0.620899 0.000000 0.000000 0.000000 -7.728375 -11.075530 4.770091 -50.732657 -25.401313 -6.098369 -17.928167 -21.761849 5.449215 -5.647515 -2.935811 0.497255 -28.558442 12.710558 2.655236 -53.659043 5.498136 -2.659670 0.000000 0.000000 0.000000 -42.919555 12.895932 -4.343615 -34.664532 -3.912122 -12.746562 0.000000 0.000000 0.000000 -45.589183 -2.741776 -16.240829 -15.633212 -2.412171 -6.550355 0.000000 0.000000 0.000000 -49.038089 2.468785 -3.148969 -29.269456 -10.009129 -18.803641 0.000000 0.000000 0.000000 -9.686677 13.415619 15.216248 41.680135 13.988694 -2.826217 0.000000 0.000000 0.000000 6.821281 7.113129 4.039427 43.669198 16.917093 -0.191977 10.601834 19.229326 0.915324 9.177783 1.227550 -12.572118 18.188696 -18.646812 4.043383 50.151057 -5.128737 5.632280 0.000000 0.000000 0.000000 31.331362 -2.614303 -2.633455 41.342723 5.730304 -8.402295 0.000000 0.000000 0.000000 11.056616 18.367102 -25.585851 16.798766 -2.780655 4.232527 0.000000 0.000000 0.000000 30.702118 9.606739 -4.050867 36.564373 12.736847 -12.515360 0.000000 0.000000 0.000000 -25.091660 -37.209121 30.056874 2.774937 27.128852 -11.514127 0.000000 0.000000 0.000000 
0.009861 0.937394 0.044144 -0.828536 12.481869 -16.193202 3.237044 0.983374 11.101888 -4.401089 -3.908052 34.947671 -1.397601 -12.182451 -8.012327 0.000000 0.000000 0.000000 -0.200221 -0.714863 5.440233 -0.874129 0.476132 18.756592 -1.545352 3.689235 -12.587784 0.000000 0.000000 0.000000 -3.070881 -0.659910 12.115301 -4.180798 0.545400 -8.926152 9.551255 1.527143 24.815586 4.883142 -0.467734 -1.640343 0.000000 0.000000 0.000000 -7.644184 -12.219700 5.214889 -51.322119 -24.171863 -6.579637 -17.055509 -25.223869 6.117976 -7.144718 -0.777357 2.192546 -34.960032 20.102625 3.000509 -55.917188 11.561589 1.304535 0.000000 0.000000 0.000000 -44.832501 20.766228 -3.873030 -41.966990 -1.059590 -8.781171 0.000000 0.000000 0.000000 -40.197474 4.109642 -12.178648 -40.687988 -12.592916 -19.341402 0.000000 0.000000 0.000000 -49.335585 5.942865 -3.214848 -39.345353 -10.822813 -16.360459 0.000000 0.000000 0.000000 -9.425155 12.723537 14.956265 44.051229 15.223879 -3.632298 0.000000 0.000000 0.000000 4.876633 6.134759 3.491508 49.279030 18.558090 1.247116 9.112023 18.671540 0.744021 5.480255 5.119756 -7.796336 19.028196 -25.625143 5.096893 61.973003 -6.214663 1.767454 0.000000 0.000000 0.000000 37.185842 -7.785274 -2.492117 55.043070 5.140827 -9.076656 0.000000 0.000000 0.000000 22.446583 26.341123 -32.382068 42.052876 3.231696 -5.467084 0.000000 0.000000 0.000000 39.322240 13.734164 -4.978871 49.330231 14.216320 -12.276721 0.000000 0.000000 0.000000 -11.002299 -31.526209 23.624952 -13.867926 11.262716 -10.309289 0.000000 0.000000 0.000000 
0.008919 0.934171 0.030945 -0.595460 13.148496 -13.300088 4.168459 0.751821 10.153197 -5.186194 -2.828133 29.502260 -1.212627 -15.070087 -10.251622 0.000000 0.000000 0.000000 -0.653947 -0.558033 4.379688 -0.610753 0.385898 13.720595 -1.581374 3.041334 -12.129274 0.000000 0.000000 0.000000 -1.375320 -0.479066 9.014766 -5.436455 0.773404 -10.553458 8.620765 1.034460 25.350010 5.673611 -0.980197 0.098058 0.000000 0.000000 0.000000 -8.782534 -9.990221 3.823013 -51.389250 -21.739625 -7.003708 -17.057395 -23.546039 5.679648 -7.232118 -1.067086 3.530621 -23.696574 14.751512 3.427962 -41.183211 17.709783 11.947581 0.000000 0.000000 0.000000 -29.919859 16.404642 -0.428788 -44.660605 7.570371 2.519661 0.000000 0.000000 0.000000 -16.474202 1.900087 -5.329550 -58.761328 -7.277104 -8.467440 0.000000 0.000000 0.000000 -33.497427 8.879377 -0.363214 -47.601362 -3.634586 -4.109123 0.000000 0.000000 0.000000 8.038536 16.270692 13.573742 4.805258 -4.243293 -2.911520 0.000000 0.000000 0.000000 4.916214 7.371268 4.257611 48.896986 17.813616 1.025985 11.292526 21.262560 1.226761 1.019740 0.723686 -6.211743 19.788822 -8.578795 2.254659 39.772029 -6.839472 6.852103 0.000000 0.000000 0.000000 30.499847 2.030923 -4.260698 40.067747 -1.376221 -0.267879 0.000000 0.000000 0.000000 6.138085 19.500607 -27.105640 51.415604 0.940665 -1.787567 0.000000 0.000000 0.000000 28.311376 11.517632 -5.353721 43.656782 6.660035 -4.442059 0.000000 0.000000 0.000000 -13.904764 -22.586952 13.500641 3.626597 6.884186 -1.821144 0.000000 0.000000 0.000000 
